<svg xmlns="http://www.w3.org/2000/svg" xmlns:xlink="http://www.w3.org/1999/xlink" width="123" height="31" viewBox="0 0 123 31">
    <defs>
        <path id="a" d="M.183.212h25.638v29.216H.183z"/>
        <path id="c" d="M.096.016h29.806v29.216H.096z"/>
    </defs>
    <g fill="none" fill-rule="evenodd">
        <g transform="translate(65)">
            <mask id="b" fill="#fff">
                <use xlink:href="#a"/>
            </mask>
            <path fill="#1D1D1B" d="M15.249 29.428c-4.237 0-7.846-1.4-10.727-4.159C1.643 22.512.183 18.996.183 14.82c0-4.196 1.42-7.596 4.339-10.392C7.442 1.63 11.051.212 15.249.212c4.1 0 7.48 1.303 10.332 3.983a.767.767 0 0 1 .022 1.094l-2.626 2.72a.792.792 0 0 1-.567.24.746.746 0 0 1-.49-.18c-1.863-1.619-4.107-2.44-6.671-2.44-2.56 0-4.744.883-6.491 2.622-1.71 1.762-2.576 3.97-2.576 6.569 0 2.599.865 4.807 2.572 6.564 1.75 1.744 3.935 2.626 6.495 2.626 2.564 0 4.808-.82 6.671-2.438a.746.746 0 0 1 .49-.182.79.79 0 0 1 .567.241l2.626 2.72c.3.31.29.8-.022 1.094-2.853 2.68-6.233 3.983-10.332 3.983" mask="url(#b)"/>
        </g>
        <g transform="translate(93 1)">
            <mask id="d" fill="#fff">
                <use xlink:href="#c"/>
            </mask>
            <path fill="#1D1D1B" d="M14.999 5.434c-2.616 0-4.728.877-6.457 2.682-1.682 1.756-2.535 3.947-2.535 6.508 0 2.576.828 4.722 2.53 6.56 1.731 1.748 3.903 2.63 6.462 2.63 2.522 0 4.675-.882 6.397-2.621 1.747-1.823 2.594-3.97 2.594-6.57 0-2.582-.872-4.773-2.594-6.511-1.7-1.776-3.854-2.678-6.397-2.678m0 23.798c-4.138 0-7.695-1.418-10.572-4.215C1.553 22.224.096 18.727.096 14.624c0-4.103 1.457-7.6 4.331-10.393C7.305 1.434 10.862.016 15 .016s7.694 1.418 10.572 4.215c2.873 2.793 4.33 6.29 4.33 10.393 0 4.103-1.457 7.6-4.33 10.393-2.878 2.797-6.434 4.215-10.572 4.215" mask="url(#d)"/>
        </g>
        <path fill="#1D1D1B" d="M53.34 30a.76.76 0 0 1-.555-.237L43 19.56l-9.785 10.202a.763.763 0 0 1-1.095.014l-2.89-2.872a.785.785 0 0 1-.014-1.095l9.888-10.31-9.888-10.31a.784.784 0 0 1 .013-1.094l2.89-2.872a.763.763 0 0 1 1.096.013L43 11.44l9.785-10.202a.763.763 0 0 1 1.095-.014l2.89 2.872c.301.299.307.79.014 1.095L46.896 15.5l9.888 10.31a.785.785 0 0 1-.013 1.094l-2.89 2.872a.763.763 0 0 1-.542.224M7 7V1h17.2c.441 0 .8.39.8.869v4.262c0 .479-.359.869-.8.869H7z"/>
        <path fill="#06DCF9" d="M.851 7A.861.861 0 0 1 0 6.131V1.869C0 1.39.382 1 .85 1H6V7H.85z"/>
        <path fill="#1D1D1B" d="M7 30V24h17.2c.441 0 .8.39.8.869v4.262c0 .48-.359.869-.8.869H7zM7 19V13h17.2c.441 0 .8.39.8.869v4.262c0 .48-.359.869-.8.869H7zM56.865 19a.875.875 0 0 1-.865-.883v-4.234c0-.487.388-.883.865-.883h4.27c.477 0 .865.396.865.883v4.234a.875.875 0 0 1-.865.883h-4.27z"/>
        <path fill="#28A0F9" d="M.851 19A.861.861 0 0 1 0 18.131v-4.262C0 13.389.382 13 .85 13H6V19H.85z"/>
        <path fill="#A036F7" d="M.851 30A.861.861 0 0 1 0 29.131v-4.262C0 24.39.382 24 .85 24H6V30H.85z"/>
    </g>
</svg>
